<svg width="48" height="48" viewBox="0 0 24 24" fill="currentColor" xmlns="http://www.w3.org/2000/svg"><path d="m20.53 8.47-6-6a.747.747 0 0 0-.53-.22H8A3.383 3.383 0 0 0 4.25 6v12A3.383 3.383 0 0 0 8 21.75h9A3.383 3.383 0 0 0 20.75 18V9a.747.747 0 0 0-.22-.53Zm-5.78-3.659 3.439 3.439H17c-1.577 0-2.25-.673-2.25-2.25ZM17 20.25H8c-1.577 0-2.25-.673-2.25-2.25V6c0-1.577.673-2.25 2.25-2.25h5.25V6A3.383 3.383 0 0 0 17 9.75h2.25V18c0 1.577-.673 2.25-2.25 2.25ZM16.75 12a.75.75 0 0 1-.75.75H9a.75.75 0 0 1 0-1.5h7a.75.75 0 0 1 .75.75Zm-3 4a.75.75 0 0 1-.75.75H9a.75.75 0 0 1 0-1.5h4a.75.75 0 0 1 .75.75Z" fill="currentColor"></path></svg>