<svg width="48" height="48" viewBox="0 0 24 24" fill="currentColor" xmlns="http://www.w3.org/2000/svg"><path d="M10.283 16.752a2.089 2.089 0 0 1-1.023-.271 2.059 2.059 0 0 1-1.066-1.817V9.336a2.088 2.088 0 0 1 3.179-1.776l4.479 2.74a1.993 1.993 0 0 1 0 3.4l-4.479 2.74a2.078 2.078 0 0 1-1.09.312Zm0-8a.6.6 0 0 0-.292.078.571.571 0 0 0-.3.508v5.328a.588.588 0 0 0 .9.5l4.478-2.74a.49.49 0 0 0 0-.841L10.59 8.839a.572.572 0 0 0-.305-.089ZM12 22.75A10.75 10.75 0 1 1 22.75 12 10.762 10.762 0 0 1 12 22.75Zm0-20A9.25 9.25 0 1 0 21.25 12 9.26 9.26 0 0 0 12 2.75Z" fill="currentColor"></path></svg>